<svg id="visual" viewBox="0 0 960 300" width="960" height="300" xmlns="http://www.w3.org/2000/svg" xmlns:xlink="http://www.w3.org/1999/xlink" version="1.1"><rect x="0" y="0" width="960" height="300" fill="#264de4"></rect><path d="M0 197L22.8 202.8C45.7 208.7 91.3 220.3 137 231C182.7 241.7 228.3 251.3 274 250C319.7 248.7 365.3 236.3 411.2 236.5C457 236.7 503 249.3 548.8 249C594.7 248.7 640.3 235.3 686 230.3C731.7 225.3 777.3 228.7 823 220.7C868.7 212.7 914.3 193.3 937.2 183.7L960 174L960 0L937.2 0C914.3 0 868.7 0 823 0C777.3 0 731.7 0 686 0C640.3 0 594.7 0 548.8 0C503 0 457 0 411.2 0C365.3 0 319.7 0 274 0C228.3 0 182.7 0 137 0C91.3 0 45.7 0 22.8 0L0 0Z" fill="#264de4"></path><path d="M0 136L22.8 149.8C45.7 163.7 91.3 191.3 137 193.5C182.7 195.7 228.3 172.3 274 161.7C319.7 151 365.3 153 411.2 161.3C457 169.7 503 184.3 548.8 183.7C594.7 183 640.3 167 686 157.2C731.7 147.3 777.3 143.7 823 150.8C868.7 158 914.3 176 937.2 185L960 194L960 0L937.2 0C914.3 0 868.7 0 823 0C777.3 0 731.7 0 686 0C640.3 0 594.7 0 548.8 0C503 0 457 0 411.2 0C365.3 0 319.7 0 274 0C228.3 0 182.7 0 137 0C91.3 0 45.7 0 22.8 0L0 0Z" fill="#b026ba"></path><path d="M0 131L22.8 136.5C45.7 142 91.3 153 137 154.5C182.7 156 228.3 148 274 136.5C319.7 125 365.3 110 411.2 105.5C457 101 503 107 548.8 117.5C594.7 128 640.3 143 686 150.3C731.7 157.7 777.3 157.3 823 148.3C868.7 139.3 914.3 121.7 937.2 112.8L960 104L960 0L937.2 0C914.3 0 868.7 0 823 0C777.3 0 731.7 0 686 0C640.3 0 594.7 0 548.8 0C503 0 457 0 411.2 0C365.3 0 319.7 0 274 0C228.3 0 182.7 0 137 0C91.3 0 45.7 0 22.8 0L0 0Z" fill="#df0086"></path><path d="M0 118L22.8 117C45.7 116 91.3 114 137 106.2C182.7 98.3 228.3 84.7 274 81.2C319.7 77.7 365.3 84.3 411.2 84.7C457 85 503 79 548.8 84.2C594.7 89.3 640.3 105.7 686 112C731.7 118.3 777.3 114.7 823 112.5C868.7 110.3 914.3 109.7 937.2 109.3L960 109L960 0L937.2 0C914.3 0 868.7 0 823 0C777.3 0 731.7 0 686 0C640.3 0 594.7 0 548.8 0C503 0 457 0 411.2 0C365.3 0 319.7 0 274 0C228.3 0 182.7 0 137 0C91.3 0 45.7 0 22.8 0L0 0Z" fill="#ee004e"></path><path d="M0 56L22.8 53C45.7 50 91.3 44 137 39.3C182.7 34.7 228.3 31.3 274 33.5C319.7 35.7 365.3 43.3 411.2 51.2C457 59 503 67 548.8 67.2C594.7 67.3 640.3 59.7 686 58.7C731.7 57.7 777.3 63.3 823 60.3C868.7 57.3 914.3 45.7 937.2 39.8L960 34L960 0L937.2 0C914.3 0 868.7 0 823 0C777.3 0 731.7 0 686 0C640.3 0 594.7 0 548.8 0C503 0 457 0 411.2 0C365.3 0 319.7 0 274 0C228.3 0 182.7 0 137 0C91.3 0 45.7 0 22.8 0L0 0Z" fill="#e42e00"></path></svg>