<svg id="visual" viewBox="0 0 960 300" width="960" height="300" xmlns="http://www.w3.org/2000/svg" xmlns:xlink="http://www.w3.org/1999/xlink" version="1.1"><rect x="0" y="0" width="960" height="300" fill="#000000"></rect><path d="M0 101L22.8 95.2C45.7 89.3 91.3 77.7 137 67C182.7 56.3 228.3 46.7 274 48C319.7 49.3 365.3 61.7 411.2 61.5C457 61.3 503 48.7 548.8 49C594.7 49.3 640.3 62.7 686 67.7C731.7 72.7 777.3 69.3 823 77.3C868.7 85.3 914.3 104.7 937.2 114.3L960 124L960 301L937.2 301C914.3 301 868.7 301 823 301C777.3 301 731.7 301 686 301C640.3 301 594.7 301 548.8 301C503 301 457 301 411.2 301C365.3 301 319.7 301 274 301C228.3 301 182.7 301 137 301C91.3 301 45.7 301 22.8 301L0 301Z" fill="#1f0a00"></path><path d="M0 162L22.8 148.2C45.7 134.3 91.3 106.7 137 104.5C182.7 102.3 228.3 125.7 274 136.3C319.7 147 365.3 145 411.2 136.7C457 128.3 503 113.7 548.8 114.3C594.7 115 640.3 131 686 140.8C731.7 150.7 777.3 154.3 823 147.2C868.7 140 914.3 122 937.2 113L960 104L960 301L937.2 301C914.3 301 868.7 301 823 301C777.3 301 731.7 301 686 301C640.3 301 594.7 301 548.8 301C503 301 457 301 411.2 301C365.3 301 319.7 301 274 301C228.3 301 182.7 301 137 301C91.3 301 45.7 301 22.8 301L0 301Z" fill="#4f1b0c"></path><path d="M0 167L22.8 161.5C45.7 156 91.3 145 137 143.5C182.7 142 228.3 150 274 161.5C319.7 173 365.3 188 411.2 192.5C457 197 503 191 548.8 180.5C594.7 170 640.3 155 686 147.7C731.7 140.3 777.3 140.7 823 149.7C868.7 158.7 914.3 176.3 937.2 185.2L960 194L960 301L937.2 301C914.3 301 868.7 301 823 301C777.3 301 731.7 301 686 301C640.3 301 594.7 301 548.8 301C503 301 457 301 411.2 301C365.3 301 319.7 301 274 301C228.3 301 182.7 301 137 301C91.3 301 45.7 301 22.8 301L0 301Z" fill="#86290f"></path><path d="M0 180L22.8 181C45.7 182 91.3 184 137 191.8C182.7 199.7 228.3 213.3 274 216.8C319.7 220.3 365.3 213.7 411.2 213.3C457 213 503 219 548.8 213.8C594.7 208.7 640.3 192.3 686 186C731.7 179.7 777.3 183.3 823 185.5C868.7 187.7 914.3 188.3 937.2 188.7L960 189L960 301L937.2 301C914.3 301 868.7 301 823 301C777.3 301 731.7 301 686 301C640.3 301 594.7 301 548.8 301C503 301 457 301 411.2 301C365.3 301 319.7 301 274 301C228.3 301 182.7 301 137 301C91.3 301 45.7 301 22.8 301L0 301Z" fill="#c1370c"></path><path d="M0 242L22.8 245C45.7 248 91.3 254 137 258.7C182.7 263.3 228.3 266.7 274 264.5C319.7 262.3 365.3 254.7 411.2 246.8C457 239 503 231 548.8 230.8C594.7 230.7 640.3 238.3 686 239.3C731.7 240.3 777.3 234.7 823 237.7C868.7 240.7 914.3 252.3 937.2 258.2L960 264L960 301L937.2 301C914.3 301 868.7 301 823 301C777.3 301 731.7 301 686 301C640.3 301 594.7 301 548.8 301C503 301 457 301 411.2 301C365.3 301 319.7 301 274 301C228.3 301 182.7 301 137 301C91.3 301 45.7 301 22.8 301L0 301Z" fill="#ff4600"></path></svg>