<svg id="visual" viewBox="0 0 960 300" width="960" height="300" xmlns="http://www.w3.org/2000/svg" xmlns:xlink="http://www.w3.org/1999/xlink" version="1.1"><rect x="0" y="0" width="960" height="300" fill="#990000"></rect><path d="M0 115L22.8 114.2C45.7 113.3 91.3 111.7 137 107.7C182.7 103.7 228.3 97.3 274 91.8C319.7 86.3 365.3 81.7 411.2 81.5C457 81.3 503 85.7 548.8 87.8C594.7 90 640.3 90 686 95.7C731.7 101.3 777.3 112.7 823 112.8C868.7 113 914.3 102 937.2 96.5L960 91L960 301L937.2 301C914.3 301 868.7 301 823 301C777.3 301 731.7 301 686 301C640.3 301 594.7 301 548.8 301C503 301 457 301 411.2 301C365.3 301 319.7 301 274 301C228.3 301 182.7 301 137 301C91.3 301 45.7 301 22.8 301L0 301Z" fill="#990000"></path><path d="M0 155L22.8 145.8C45.7 136.7 91.3 118.3 137 111.5C182.7 104.7 228.3 109.3 274 110.5C319.7 111.7 365.3 109.3 411.2 114.3C457 119.3 503 131.7 548.8 132.5C594.7 133.3 640.3 122.7 686 112.8C731.7 103 777.3 94 823 99C868.7 104 914.3 123 937.2 132.5L960 142L960 301L937.2 301C914.3 301 868.7 301 823 301C777.3 301 731.7 301 686 301C640.3 301 594.7 301 548.8 301C503 301 457 301 411.2 301C365.3 301 319.7 301 274 301C228.3 301 182.7 301 137 301C91.3 301 45.7 301 22.8 301L0 301Z" fill="#ab0d02"></path><path d="M0 144L22.8 150.5C45.7 157 91.3 170 137 178.8C182.7 187.7 228.3 192.3 274 193.5C319.7 194.7 365.3 192.3 411.2 186.3C457 180.3 503 170.7 548.8 169C594.7 167.3 640.3 173.7 686 172.3C731.7 171 777.3 162 823 153.2C868.7 144.3 914.3 135.7 937.2 131.3L960 127L960 301L937.2 301C914.3 301 868.7 301 823 301C777.3 301 731.7 301 686 301C640.3 301 594.7 301 548.8 301C503 301 457 301 411.2 301C365.3 301 319.7 301 274 301C228.3 301 182.7 301 137 301C91.3 301 45.7 301 22.8 301L0 301Z" fill="#be1902"></path><path d="M0 206L22.8 201.2C45.7 196.3 91.3 186.7 137 191.5C182.7 196.3 228.3 215.7 274 223.8C319.7 232 365.3 229 411.2 221C457 213 503 200 548.8 194.2C594.7 188.3 640.3 189.7 686 197.2C731.7 204.7 777.3 218.3 823 221.8C868.7 225.3 914.3 218.7 937.2 215.3L960 212L960 301L937.2 301C914.3 301 868.7 301 823 301C777.3 301 731.7 301 686 301C640.3 301 594.7 301 548.8 301C503 301 457 301 411.2 301C365.3 301 319.7 301 274 301C228.3 301 182.7 301 137 301C91.3 301 45.7 301 22.8 301L0 301Z" fill="#d12401"></path><path d="M0 224L22.8 224.8C45.7 225.7 91.3 227.3 137 226.7C182.7 226 228.3 223 274 225.2C319.7 227.3 365.3 234.7 411.2 239.8C457 245 503 248 548.8 244.3C594.7 240.7 640.3 230.3 686 228C731.7 225.7 777.3 231.3 823 234.5C868.7 237.7 914.3 238.3 937.2 238.7L960 239L960 301L937.2 301C914.3 301 868.7 301 823 301C777.3 301 731.7 301 686 301C640.3 301 594.7 301 548.8 301C503 301 457 301 411.2 301C365.3 301 319.7 301 274 301C228.3 301 182.7 301 137 301C91.3 301 45.7 301 22.8 301L0 301Z" fill="#e42e00"></path></svg>