<svg id="visual" viewBox="0 0 960 300" width="960" height="300" xmlns="http://www.w3.org/2000/svg" xmlns:xlink="http://www.w3.org/1999/xlink" version="1.1"><rect x="0" y="0" width="960" height="300" fill="#000000"></rect><path d="M0 105L69 105L69 113L137 113L137 112L206 112L206 110L274 110L274 106L343 106L343 91L411 91L411 109L480 109L480 101L549 101L549 109L617 109L617 118L686 118L686 107L754 107L754 115L823 115L823 111L891 111L891 96L960 96L960 106L960 301L960 301L891 301L891 301L823 301L823 301L754 301L754 301L686 301L686 301L617 301L617 301L549 301L549 301L480 301L480 301L411 301L411 301L343 301L343 301L274 301L274 301L206 301L206 301L137 301L137 301L69 301L69 301L0 301Z" fill="#030000"></path><path d="M0 121L69 121L69 109L137 109L137 116L206 116L206 127L274 127L274 113L343 113L343 118L411 118L411 120L480 120L480 114L549 114L549 111L617 111L617 124L686 124L686 107L754 107L754 126L823 126L823 135L891 135L891 129L960 129L960 130L960 301L960 301L891 301L891 301L823 301L823 301L754 301L754 301L686 301L686 301L617 301L617 301L549 301L549 301L480 301L480 301L411 301L411 301L343 301L343 301L274 301L274 301L206 301L206 301L137 301L137 301L69 301L69 301L0 301Z" fill="#190505"></path><path d="M0 138L69 138L69 133L137 133L137 141L206 141L206 135L274 135L274 125L343 125L343 123L411 123L411 128L480 128L480 131L549 131L549 137L617 137L617 146L686 146L686 149L754 149L754 138L823 138L823 136L891 136L891 129L960 129L960 137L960 301L960 301L891 301L891 301L823 301L823 301L754 301L754 301L686 301L686 301L617 301L617 301L549 301L549 301L480 301L480 301L411 301L411 301L343 301L343 301L274 301L274 301L206 301L206 301L137 301L137 301L69 301L69 301L0 301Z" fill="#250b09"></path><path d="M0 169L69 169L69 165L137 165L137 157L206 157L206 160L274 160L274 138L343 138L343 169L411 169L411 143L480 143L480 143L549 143L549 156L617 156L617 160L686 160L686 150L754 150L754 155L823 155L823 149L891 149L891 157L960 157L960 155L960 301L960 301L891 301L891 301L823 301L823 301L754 301L754 301L686 301L686 301L617 301L617 301L549 301L549 301L480 301L480 301L411 301L411 301L343 301L343 301L274 301L274 301L206 301L206 301L137 301L137 301L69 301L69 301L0 301Z" fill="#310d0c"></path><path d="M0 158L69 158L69 183L137 183L137 167L206 167L206 154L274 154L274 185L343 185L343 175L411 175L411 177L480 177L480 183L549 183L549 163L617 163L617 160L686 160L686 172L754 172L754 165L823 165L823 159L891 159L891 177L960 177L960 182L960 301L960 301L891 301L891 301L823 301L823 301L754 301L754 301L686 301L686 301L617 301L617 301L549 301L549 301L480 301L480 301L411 301L411 301L343 301L343 301L274 301L274 301L206 301L206 301L137 301L137 301L69 301L69 301L0 301Z" fill="#3e0d0e"></path><path d="M0 189L69 189L69 173L137 173L137 176L206 176L206 192L274 192L274 172L343 172L343 171L411 171L411 178L480 178L480 171L549 171L549 189L617 189L617 197L686 197L686 175L754 175L754 202L823 202L823 198L891 198L891 201L960 201L960 189L960 301L960 301L891 301L891 301L823 301L823 301L754 301L754 301L686 301L686 301L617 301L617 301L549 301L549 301L480 301L480 301L411 301L411 301L343 301L343 301L274 301L274 301L206 301L206 301L137 301L137 301L69 301L69 301L0 301Z" fill="#4a0d0f"></path><path d="M0 207L69 207L69 218L137 218L137 202L206 202L206 210L274 210L274 208L343 208L343 187L411 187L411 211L480 211L480 190L549 190L549 212L617 212L617 216L686 216L686 213L754 213L754 192L823 192L823 200L891 200L891 203L960 203L960 187L960 301L960 301L891 301L891 301L823 301L823 301L754 301L754 301L686 301L686 301L617 301L617 301L549 301L549 301L480 301L480 301L411 301L411 301L343 301L343 301L274 301L274 301L206 301L206 301L137 301L137 301L69 301L69 301L0 301Z" fill="#580b0f"></path><path d="M0 229L69 229L69 211L137 211L137 211L206 211L206 224L274 224L274 226L343 226L343 223L411 223L411 205L480 205L480 207L549 207L549 206L617 206L617 232L686 232L686 230L754 230L754 220L823 220L823 225L891 225L891 220L960 220L960 214L960 301L960 301L891 301L891 301L823 301L823 301L754 301L754 301L686 301L686 301L617 301L617 301L549 301L549 301L480 301L480 301L411 301L411 301L343 301L343 301L274 301L274 301L206 301L206 301L137 301L137 301L69 301L69 301L0 301Z" fill="#65090e"></path><path d="M0 247L69 247L69 249L137 249L137 236L206 236L206 243L274 243L274 241L343 241L343 245L411 245L411 248L480 248L480 233L549 233L549 220L617 220L617 238L686 238L686 224L754 224L754 234L823 234L823 233L891 233L891 248L960 248L960 242L960 301L960 301L891 301L891 301L823 301L823 301L754 301L754 301L686 301L686 301L617 301L617 301L549 301L549 301L480 301L480 301L411 301L411 301L343 301L343 301L274 301L274 301L206 301L206 301L137 301L137 301L69 301L69 301L0 301Z" fill="#72070d"></path><path d="M0 260L69 260L69 241L137 241L137 257L206 257L206 249L274 249L274 238L343 238L343 246L411 246L411 256L480 256L480 253L549 253L549 249L617 249L617 246L686 246L686 241L754 241L754 260L823 260L823 265L891 265L891 253L960 253L960 246L960 301L960 301L891 301L891 301L823 301L823 301L754 301L754 301L686 301L686 301L617 301L617 301L549 301L549 301L480 301L480 301L411 301L411 301L343 301L343 301L274 301L274 301L206 301L206 301L137 301L137 301L69 301L69 301L0 301Z" fill="#7f040a"></path><path d="M0 261L69 261L69 271L137 271L137 257L206 257L206 253L274 253L274 267L343 267L343 257L411 257L411 280L480 280L480 282L549 282L549 260L617 260L617 264L686 264L686 277L754 277L754 264L823 264L823 266L891 266L891 281L960 281L960 255L960 301L960 301L891 301L891 301L823 301L823 301L754 301L754 301L686 301L686 301L617 301L617 301L549 301L549 301L480 301L480 301L411 301L411 301L343 301L343 301L274 301L274 301L206 301L206 301L137 301L137 301L69 301L69 301L0 301Z" fill="#8c0205"></path><path d="M0 287L69 287L69 293L137 293L137 293L206 293L206 288L274 288L274 270L343 270L343 274L411 274L411 275L480 275L480 280L549 280L549 290L617 290L617 291L686 291L686 274L754 274L754 270L823 270L823 286L891 286L891 291L960 291L960 269L960 301L960 301L891 301L891 301L823 301L823 301L754 301L754 301L686 301L686 301L617 301L617 301L549 301L549 301L480 301L480 301L411 301L411 301L343 301L343 301L274 301L274 301L206 301L206 301L137 301L137 301L69 301L69 301L0 301Z" fill="#990000"></path></svg>