<svg id="visual" viewBox="0 0 500 960" width="500" height="960" xmlns="http://www.w3.org/2000/svg" xmlns:xlink="http://www.w3.org/1999/xlink" version="1.1"><rect x="0" y="0" width="500" height="960" fill="#000000"></rect><path d="M456 0L460 0L460 53L451 53L451 107L474 107L474 160L481 160L481 213L474 213L474 267L425 267L425 320L466 320L466 373L466 373L466 427L501 427L501 480L437 480L437 533L466 533L466 587L469 587L469 640L481 640L481 693L449 693L449 747L432 747L432 800L483 800L483 853L428 853L428 907L448 907L448 960L0 960L0 907L0 907L0 853L0 853L0 800L0 800L0 747L0 747L0 693L0 693L0 640L0 640L0 587L0 587L0 533L0 533L0 480L0 480L0 427L0 427L0 373L0 373L0 320L0 320L0 267L0 267L0 213L0 213L0 160L0 160L0 107L0 107L0 53L0 53L0 0L0 0Z" fill="#030000"></path><path d="M403 0L409 0L409 53L407 53L407 107L402 107L402 160L447 160L447 213L417 213L417 267L431 267L431 320L420 320L420 373L394 373L394 427L426 427L426 480L443 480L443 533L438 533L438 587L421 587L421 640L435 640L435 693L409 693L409 747L418 747L418 800L403 800L403 853L431 853L431 907L409 907L409 960L0 960L0 907L0 907L0 853L0 853L0 800L0 800L0 747L0 747L0 693L0 693L0 640L0 640L0 587L0 587L0 533L0 533L0 480L0 480L0 427L0 427L0 373L0 373L0 320L0 320L0 267L0 267L0 213L0 213L0 160L0 160L0 107L0 107L0 53L0 53L0 0L0 0Z" fill="#1b0706"></path><path d="M370 0L370 0L370 53L359 53L359 107L373 107L373 160L416 160L416 213L386 213L386 267L393 267L393 320L396 320L396 373L413 373L413 427L385 427L385 480L399 480L399 533L359 533L359 587L363 587L363 640L419 640L419 693L371 693L371 747L365 747L365 800L370 800L370 853L375 853L375 907L407 907L407 960L0 960L0 907L0 907L0 853L0 853L0 800L0 800L0 747L0 747L0 693L0 693L0 640L0 640L0 587L0 587L0 533L0 533L0 480L0 480L0 427L0 427L0 373L0 373L0 320L0 320L0 267L0 267L0 213L0 213L0 160L0 160L0 107L0 107L0 53L0 53L0 0L0 0Z" fill="#290d0b"></path><path d="M349 0L357 0L357 53L346 53L346 107L318 107L318 160L363 160L363 213L344 213L344 267L371 267L371 320L350 320L350 373L344 373L344 427L363 427L363 480L327 480L327 533L352 533L352 587L346 587L346 640L385 640L385 693L335 693L335 747L328 747L328 800L354 800L354 853L321 853L321 907L313 907L313 960L0 960L0 907L0 907L0 853L0 853L0 800L0 800L0 747L0 747L0 693L0 693L0 640L0 640L0 587L0 587L0 533L0 533L0 480L0 480L0 427L0 427L0 373L0 373L0 320L0 320L0 267L0 267L0 213L0 213L0 160L0 160L0 107L0 107L0 53L0 53L0 0L0 0Z" fill="#370e0f"></path><path d="M284 0L342 0L342 53L287 53L287 107L299 107L299 160L299 160L299 213L311 213L311 267L297 267L297 320L319 320L319 373L320 373L320 427L278 427L278 480L272 480L272 533L320 533L320 587L315 587L315 640L285 640L285 693L305 693L305 747L295 747L295 800L303 800L303 853L278 853L278 907L292 907L292 960L0 960L0 907L0 907L0 853L0 853L0 800L0 800L0 747L0 747L0 693L0 693L0 640L0 640L0 587L0 587L0 533L0 533L0 480L0 480L0 427L0 427L0 373L0 373L0 320L0 320L0 267L0 267L0 213L0 213L0 160L0 160L0 107L0 107L0 53L0 53L0 0L0 0Z" fill="#470e11"></path><path d="M251 0L247 0L247 53L306 53L306 107L299 107L299 160L304 160L304 213L233 213L233 267L262 267L262 320L274 320L274 373L245 373L245 427L249 427L249 480L234 480L234 533L301 533L301 587L285 587L285 640L308 640L308 693L300 693L300 747L254 747L254 800L252 800L252 853L288 853L288 907L297 907L297 960L0 960L0 907L0 907L0 853L0 853L0 800L0 800L0 747L0 747L0 693L0 693L0 640L0 640L0 587L0 587L0 533L0 533L0 480L0 480L0 427L0 427L0 373L0 373L0 320L0 320L0 267L0 267L0 213L0 213L0 160L0 160L0 107L0 107L0 53L0 53L0 0L0 0Z" fill="#560e13"></path><path d="M207 0L267 0L267 53L235 53L235 107L253 107L253 160L199 160L199 213L203 213L203 267L195 267L195 320L252 320L252 373L253 373L253 427L224 427L224 480L255 480L255 533L233 533L233 587L235 587L235 640L216 640L216 693L259 693L259 747L238 747L238 800L245 800L245 853L238 853L238 907L239 907L239 960L0 960L0 907L0 907L0 853L0 853L0 800L0 800L0 747L0 747L0 693L0 693L0 640L0 640L0 587L0 587L0 533L0 533L0 480L0 480L0 427L0 427L0 373L0 373L0 320L0 320L0 267L0 267L0 213L0 213L0 160L0 160L0 107L0 107L0 53L0 53L0 0L0 0Z" fill="#660c13"></path><path d="M197 0L230 0L230 53L157 53L157 107L224 107L224 160L210 160L210 213L187 213L187 267L191 267L191 320L157 320L157 373L226 373L226 427L208 427L208 480L216 480L216 533L207 533L207 587L205 587L205 640L182 640L182 693L217 693L217 747L164 747L164 800L209 800L209 853L224 853L224 907L157 907L157 960L0 960L0 907L0 907L0 853L0 853L0 800L0 800L0 747L0 747L0 693L0 693L0 640L0 640L0 587L0 587L0 533L0 533L0 480L0 480L0 427L0 427L0 373L0 373L0 320L0 320L0 267L0 267L0 213L0 213L0 160L0 160L0 107L0 107L0 53L0 53L0 0L0 0Z" fill="#760912"></path><path d="M134 0L143 0L143 53L138 53L138 107L152 107L152 160L177 160L177 213L164 213L164 267L118 267L118 320L140 320L140 373L182 373L182 427L182 427L182 480L122 480L122 533L155 533L155 587L123 587L123 640L134 640L134 693L144 693L144 747L182 747L182 800L154 800L154 853L124 853L124 907L120 907L120 960L0 960L0 907L0 907L0 853L0 853L0 800L0 800L0 747L0 747L0 693L0 693L0 640L0 640L0 587L0 587L0 533L0 533L0 480L0 480L0 427L0 427L0 373L0 373L0 320L0 320L0 267L0 267L0 213L0 213L0 160L0 160L0 107L0 107L0 53L0 53L0 0L0 0Z" fill="#860610"></path><path d="M108 0L140 0L140 53L108 53L108 107L97 107L97 160L99 160L99 213L85 213L85 267L127 267L127 320L139 320L139 373L135 373L135 427L142 427L142 480L82 480L82 533L154 533L154 587L93 587L93 640L152 640L152 693L149 693L149 747L101 747L101 800L96 800L96 853L78 853L78 907L153 907L153 960L0 960L0 907L0 907L0 853L0 853L0 800L0 800L0 747L0 747L0 693L0 693L0 640L0 640L0 587L0 587L0 533L0 533L0 480L0 480L0 427L0 427L0 373L0 373L0 320L0 320L0 267L0 267L0 213L0 213L0 160L0 160L0 107L0 107L0 53L0 53L0 0L0 0Z" fill="#96030d"></path><path d="M44 0L41 0L41 53L74 53L74 107L56 107L56 160L64 160L64 213L40 213L40 267L73 267L73 320L49 320L49 373L87 373L87 427L101 427L101 480L54 480L54 533L77 533L77 587L79 587L79 640L88 640L88 693L76 693L76 747L88 747L88 800L55 800L55 853L64 853L64 907L101 907L101 960L0 960L0 907L0 907L0 853L0 853L0 800L0 800L0 747L0 747L0 693L0 693L0 640L0 640L0 587L0 587L0 533L0 533L0 480L0 480L0 427L0 427L0 373L0 373L0 320L0 320L0 267L0 267L0 213L0 213L0 160L0 160L0 107L0 107L0 53L0 53L0 0L0 0Z" fill="#a60107"></path><path d="M45 0L25 0L25 53L68 53L68 107L4 107L4 160L5 160L5 213L69 213L69 267L30 267L30 320L25 320L25 373L56 373L56 427L75 427L75 480L61 480L61 533L35 533L35 587L71 587L71 640L71 640L71 693L49 693L49 747L25 747L25 800L76 800L76 853L27 853L27 907L20 907L20 960L0 960L0 907L0 907L0 853L0 853L0 800L0 800L0 747L0 747L0 693L0 693L0 640L0 640L0 587L0 587L0 533L0 533L0 480L0 480L0 427L0 427L0 373L0 373L0 320L0 320L0 267L0 267L0 213L0 213L0 160L0 160L0 107L0 107L0 53L0 53L0 0L0 0Z" fill="#b60000"></path></svg>