<svg id="visual" viewBox="0 0 500 960" width="500" height="960" xmlns="http://www.w3.org/2000/svg" xmlns:xlink="http://www.w3.org/1999/xlink" version="1.1"><path d="M0 39L16.7 37.5C33.3 36 66.7 33 100 36.3C133.3 39.7 166.7 49.3 200 52.5C233.3 55.7 266.7 52.3 300 49C333.3 45.7 366.7 42.3 400 42.3C433.3 42.3 466.7 45.7 483.3 47.3L500 49L500 0L483.3 0C466.7 0 433.3 0 400 0C366.7 0 333.3 0 300 0C266.7 0 233.3 0 200 0C166.7 0 133.3 0 100 0C66.7 0 33.3 0 16.7 0L0 0Z" fill="#000000"></path><path d="M0 203L16.7 196.5C33.3 190 66.7 177 100 169C133.3 161 166.7 158 200 159.7C233.3 161.3 266.7 167.7 300 180.3C333.3 193 366.7 212 400 213.5C433.3 215 466.7 199 483.3 191L500 183L500 47L483.3 45.3C466.7 43.7 433.3 40.3 400 40.3C366.7 40.3 333.3 43.7 300 47C266.7 50.3 233.3 53.7 200 50.5C166.7 47.3 133.3 37.7 100 34.3C66.7 31 33.3 34 16.7 35.5L0 37Z" fill="#590000"></path><path d="M0 289L16.7 277.8C33.3 266.7 66.7 244.3 100 233.2C133.3 222 166.7 222 200 223.5C233.3 225 266.7 228 300 242.3C333.3 256.7 366.7 282.3 400 280.8C433.3 279.3 466.7 250.7 483.3 236.3L500 222L500 181L483.3 189C466.7 197 433.3 213 400 211.5C366.7 210 333.3 191 300 178.3C266.7 165.7 233.3 159.3 200 157.7C166.7 156 133.3 159 100 167C66.7 175 33.3 188 16.7 194.5L0 201Z" fill="#780000"></path><path d="M0 356L16.7 338.5C33.3 321 66.7 286 100 270C133.3 254 166.7 257 200 260.2C233.3 263.3 266.7 266.7 300 284.3C333.3 302 366.7 334 400 335.5C433.3 337 466.7 308 483.3 293.5L500 279L500 220L483.3 234.3C466.7 248.7 433.3 277.3 400 278.8C366.7 280.3 333.3 254.7 300 240.3C266.7 226 233.3 223 200 221.5C166.7 220 133.3 220 100 231.2C66.7 242.3 33.3 264.7 16.7 275.8L0 287Z" fill="#940002"></path><path d="M0 625L16.7 609C33.3 593 66.7 561 100 538.7C133.3 516.3 166.7 503.7 200 505.3C233.3 507 266.7 523 300 527.7C333.3 532.3 366.7 525.7 400 519.2C433.3 512.7 466.7 506.3 483.3 503.2L500 500L500 277L483.3 291.5C466.7 306 433.3 335 400 333.5C366.7 332 333.3 300 300 282.3C266.7 264.7 233.3 261.3 200 258.2C166.7 255 133.3 252 100 268C66.7 284 33.3 319 16.7 336.5L0 354Z" fill="#b00001"></path><path d="M0 683L16.7 665.3C33.3 647.7 66.7 612.3 100 591.5C133.3 570.7 166.7 564.3 200 566C233.3 567.7 266.7 577.3 300 585.3C333.3 593.3 366.7 599.7 400 594.8C433.3 590 466.7 574 483.3 566L500 558L500 498L483.3 501.2C466.7 504.3 433.3 510.7 400 517.2C366.7 523.7 333.3 530.3 300 525.7C266.7 521 233.3 505 200 503.3C166.7 501.7 133.3 514.3 100 536.7C66.7 559 33.3 591 16.7 607L0 623Z" fill="#bb0000"></path><path d="M0 759L16.7 743C33.3 727 66.7 695 100 685.5C133.3 676 166.7 689 200 698.7C233.3 708.3 266.7 714.7 300 711.5C333.3 708.3 366.7 695.7 400 687.7C433.3 679.7 466.7 676.3 483.3 674.7L500 673L500 556L483.3 564C466.7 572 433.3 588 400 592.8C366.7 597.7 333.3 591.3 300 583.3C266.7 575.3 233.3 565.7 200 564C166.7 562.3 133.3 568.7 100 589.5C66.7 610.3 33.3 645.7 16.7 663.3L0 681Z" fill="#bb0000"></path><path d="M0 807L16.7 787.8C33.3 768.7 66.7 730.3 100 716C133.3 701.7 166.7 711.3 200 722.5C233.3 733.7 266.7 746.3 300 748C333.3 749.7 366.7 740.3 400 730.8C433.3 721.3 466.7 711.7 483.3 706.8L500 702L500 671L483.3 672.7C466.7 674.3 433.3 677.7 400 685.7C366.7 693.7 333.3 706.3 300 709.5C266.7 712.7 233.3 706.3 200 696.7C166.7 687 133.3 674 100 683.5C66.7 693 33.3 725 16.7 741L0 757Z" fill="#b00001"></path><path d="M0 846L16.7 825.2C33.3 804.3 66.7 762.7 100 746.7C133.3 730.7 166.7 740.3 200 753.2C233.3 766 266.7 782 300 783.5C333.3 785 366.7 772 400 764C433.3 756 466.7 753 483.3 751.5L500 750L500 700L483.3 704.8C466.7 709.7 433.3 719.3 400 728.8C366.7 738.3 333.3 747.7 300 746C266.7 744.3 233.3 731.7 200 720.5C166.7 709.3 133.3 699.7 100 714C66.7 728.3 33.3 766.7 16.7 785.8L0 805Z" fill="#940002"></path><path d="M0 913L16.7 903.3C33.3 893.7 66.7 874.3 100 866.3C133.3 858.3 166.7 861.7 200 863.3C233.3 865 266.7 865 300 866.7C333.3 868.3 366.7 871.7 400 873.3C433.3 875 466.7 875 483.3 875L500 875L500 748L483.3 749.5C466.7 751 433.3 754 400 762C366.7 770 333.3 783 300 781.5C266.7 780 233.3 764 200 751.2C166.7 738.3 133.3 728.7 100 744.7C66.7 760.7 33.3 802.3 16.7 823.2L0 844Z" fill="#780000"></path><path d="M0 942L16.7 937.2C33.3 932.3 66.7 922.7 100 917.8C133.3 913 166.7 913 200 913C233.3 913 266.7 913 300 913C333.3 913 366.7 913 400 913C433.3 913 466.7 913 483.3 913L500 913L500 873L483.3 873C466.7 873 433.3 873 400 871.3C366.7 869.7 333.3 866.3 300 864.7C266.7 863 233.3 863 200 861.3C166.7 859.7 133.3 856.3 100 864.3C66.7 872.3 33.3 891.7 16.7 901.3L0 911Z" fill="#590000"></path><path d="M0 961L16.7 961C33.3 961 66.7 961 100 961C133.3 961 166.7 961 200 961C233.3 961 266.7 961 300 961C333.3 961 366.7 961 400 961C433.3 961 466.7 961 483.3 961L500 961L500 911L483.3 911C466.7 911 433.3 911 400 911C366.7 911 333.3 911 300 911C266.7 911 233.3 911 200 911C166.7 911 133.3 911 100 915.8C66.7 920.7 33.3 930.3 16.7 935.2L0 940Z" fill="#000000"></path></svg>