<svg id="visual" viewBox="0 0 500 960" width="500" height="960" xmlns="http://www.w3.org/2000/svg" xmlns:xlink="http://www.w3.org/1999/xlink" version="1.1"><rect x="0" y="0" width="500" height="960" fill="#000000"></rect><g transform="translate(273.8584920872464 490.8845597311774)"><path d="M180.1 -309.1C224.8 -286.1 246.6 -220.5 272.5 -161.9C298.3 -103.3 328.2 -51.7 322.4 -3.3C316.6 45 275.2 90 238.8 130.3C202.4 170.5 170.9 206.1 132 225.2C93 244.4 46.5 247.2 -9.9 264.4C-66.3 281.6 -132.7 313.1 -181.9 299.9C-231.1 286.6 -263.2 228.6 -276.5 171.1C-289.9 113.7 -284.4 56.8 -307.4 -13.2C-330.3 -83.3 -381.7 -166.7 -368.8 -224.8C-355.8 -283 -278.7 -316 -206.5 -323.2C-134.3 -330.3 -67.2 -311.7 0.2 -312.1C67.7 -312.5 135.3 -332.1 180.1 -309.1" fill="#e80000"></path></g></svg>