<svg id="visual" viewBox="0 0 900 600" width="900" height="600" xmlns="http://www.w3.org/2000/svg" xmlns:xlink="http://www.w3.org/1999/xlink" version="1.1"><path d="M0 43L16.7 41C33.3 39 66.7 35 100 38C133.3 41 166.7 51 200 54C233.3 57 266.7 53 300 49C333.3 45 366.7 41 400 40C433.3 39 466.7 41 500 40C533.3 39 566.7 35 600 34C633.3 33 666.7 35 700 37C733.3 39 766.7 41 800 45C833.3 49 866.7 55 883.3 58L900 61L900 0L883.3 0C866.7 0 833.3 0 800 0C766.7 0 733.3 0 700 0C666.7 0 633.3 0 600 0C566.7 0 533.3 0 500 0C466.7 0 433.3 0 400 0C366.7 0 333.3 0 300 0C266.7 0 233.3 0 200 0C166.7 0 133.3 0 100 0C66.7 0 33.3 0 16.7 0L0 0Z" fill="#000000"></path><path d="M0 91L16.7 85C33.3 79 66.7 67 100 68C133.3 69 166.7 83 200 91C233.3 99 266.7 101 300 99C333.3 97 366.7 91 400 90C433.3 89 466.7 93 500 93C533.3 93 566.7 89 600 86C633.3 83 666.7 81 700 81C733.3 81 766.7 83 800 89C833.3 95 866.7 105 883.3 110L900 115L900 59L883.3 56C866.7 53 833.3 47 800 43C766.7 39 733.3 37 700 35C666.7 33 633.3 31 600 32C566.7 33 533.3 37 500 38C466.7 39 433.3 37 400 38C366.7 39 333.3 43 300 47C266.7 51 233.3 55 200 52C166.7 49 133.3 39 100 36C66.7 33 33.3 37 16.7 39L0 41Z" fill="#545454"></path><path d="M0 145L16.7 139C33.3 133 66.7 121 100 125C133.3 129 166.7 149 200 160C233.3 171 266.7 173 300 169C333.3 165 366.7 155 400 151C433.3 147 466.7 149 500 149C533.3 149 566.7 147 600 149C633.3 151 666.7 157 700 165C733.3 173 766.7 183 800 183C833.3 183 866.7 173 883.3 168L900 163L900 113L883.3 108C866.7 103 833.3 93 800 87C766.7 81 733.3 79 700 79C666.7 79 633.3 81 600 84C566.7 87 533.3 91 500 91C466.7 91 433.3 87 400 88C366.7 89 333.3 95 300 97C266.7 99 233.3 97 200 89C166.7 81 133.3 67 100 66C66.7 65 33.3 77 16.7 83L0 89Z" fill="#afafaf"></path><path d="M0 223L16.7 215C33.3 207 66.7 191 100 188C133.3 185 166.7 195 200 203C233.3 211 266.7 217 300 213C333.3 209 366.7 195 400 195C433.3 195 466.7 209 500 215C533.3 221 566.7 219 600 215C633.3 211 666.7 205 700 212C733.3 219 766.7 239 800 239C833.3 239 866.7 219 883.3 209L900 199L900 161L883.3 166C866.7 171 833.3 181 800 181C766.7 181 733.3 171 700 163C666.7 155 633.3 149 600 147C566.7 145 533.3 147 500 147C466.7 147 433.3 145 400 149C366.7 153 333.3 163 300 167C266.7 171 233.3 169 200 158C166.7 147 133.3 127 100 123C66.7 119 33.3 131 16.7 137L0 143Z" fill="#ffffff"></path><path d="M0 361L16.7 353C33.3 345 66.7 329 100 333C133.3 337 166.7 361 200 368C233.3 375 266.7 365 300 361C333.3 357 366.7 359 400 353C433.3 347 466.7 333 500 333C533.3 333 566.7 347 600 353C633.3 359 666.7 357 700 360C733.3 363 766.7 371 800 369C833.3 367 866.7 355 883.3 349L900 343L900 197L883.3 207C866.7 217 833.3 237 800 237C766.7 237 733.3 217 700 210C666.7 203 633.3 209 600 213C566.7 217 533.3 219 500 213C466.7 207 433.3 193 400 193C366.7 193 333.3 207 300 211C266.7 215 233.3 209 200 201C166.7 193 133.3 183 100 186C66.7 189 33.3 205 16.7 213L0 221Z" fill="#ffffff"></path><path d="M0 421L16.7 413C33.3 405 66.7 389 100 398C133.3 407 166.7 441 200 449C233.3 457 266.7 439 300 436C333.3 433 366.7 445 400 436C433.3 427 466.7 397 500 395C533.3 393 566.7 419 600 433C633.3 447 666.7 449 700 452C733.3 455 766.7 459 800 451C833.3 443 866.7 423 883.3 413L900 403L900 341L883.3 347C866.7 353 833.3 365 800 367C766.7 369 733.3 361 700 358C666.7 355 633.3 357 600 351C566.7 345 533.3 331 500 331C466.7 331 433.3 345 400 351C366.7 357 333.3 355 300 359C266.7 363 233.3 373 200 366C166.7 359 133.3 335 100 331C66.7 327 33.3 343 16.7 351L0 359Z" fill="#afafaf"></path><path d="M0 445L16.7 440C33.3 435 66.7 425 100 437C133.3 449 166.7 483 200 493C233.3 503 266.7 489 300 485C333.3 481 366.7 487 400 478C433.3 469 466.7 445 500 446C533.3 447 566.7 473 600 484C633.3 495 666.7 491 700 489C733.3 487 766.7 487 800 481C833.3 475 866.7 463 883.3 457L900 451L900 401L883.3 411C866.7 421 833.3 441 800 449C766.7 457 733.3 453 700 450C666.7 447 633.3 445 600 431C566.7 417 533.3 391 500 393C466.7 395 433.3 425 400 434C366.7 443 333.3 431 300 434C266.7 437 233.3 455 200 447C166.7 439 133.3 405 100 396C66.7 387 33.3 403 16.7 411L0 419Z" fill="#545454"></path><path d="M0 601L16.7 601C33.3 601 66.7 601 100 601C133.3 601 166.7 601 200 601C233.3 601 266.7 601 300 601C333.3 601 366.7 601 400 601C433.3 601 466.7 601 500 601C533.3 601 566.7 601 600 601C633.3 601 666.7 601 700 601C733.3 601 766.7 601 800 601C833.3 601 866.7 601 883.3 601L900 601L900 449L883.3 455C866.7 461 833.3 473 800 479C766.7 485 733.3 485 700 487C666.7 489 633.3 493 600 482C566.7 471 533.3 445 500 444C466.7 443 433.3 467 400 476C366.7 485 333.3 479 300 483C266.7 487 233.3 501 200 491C166.7 481 133.3 447 100 435C66.7 423 33.3 433 16.7 438L0 443Z" fill="#000000"></path></svg>