<svg id="visual" viewBox="0 0 960 200" width="960" height="200" xmlns="http://www.w3.org/2000/svg" xmlns:xlink="http://www.w3.org/1999/xlink" version="1.1"><rect x="0" y="0" width="960" height="200" fill="#232634"></rect><path d="M0 70L22.8 67.7C45.7 65.3 91.3 60.7 137 66C182.7 71.3 228.3 86.7 274 88.3C319.7 90 365.3 78 411.2 67.2C457 56.3 503 46.7 548.8 44C594.7 41.3 640.3 45.7 686 46.7C731.7 47.7 777.3 45.3 823 53.7C868.7 62 914.3 81 937.2 90.5L960 100L960 201L937.2 201C914.3 201 868.7 201 823 201C777.3 201 731.7 201 686 201C640.3 201 594.7 201 548.8 201C503 201 457 201 411.2 201C365.3 201 319.7 201 274 201C228.3 201 182.7 201 137 201C91.3 201 45.7 201 22.8 201L0 201Z" fill="#373d59"></path><path d="M0 110L22.8 111.8C45.7 113.7 91.3 117.3 137 112.3C182.7 107.3 228.3 93.7 274 94.8C319.7 96 365.3 112 411.2 118.8C457 125.7 503 123.3 548.8 115.5C594.7 107.7 640.3 94.3 686 87C731.7 79.7 777.3 78.3 823 86C868.7 93.7 914.3 110.3 937.2 118.7L960 127L960 201L937.2 201C914.3 201 868.7 201 823 201C777.3 201 731.7 201 686 201C640.3 201 594.7 201 548.8 201C503 201 457 201 411.2 201C365.3 201 319.7 201 274 201C228.3 201 182.7 201 137 201C91.3 201 45.7 201 22.8 201L0 201Z" fill="#373c77"></path><path d="M0 134L22.8 131.2C45.7 128.3 91.3 122.7 137 123.3C182.7 124 228.3 131 274 134.7C319.7 138.3 365.3 138.7 411.2 137.2C457 135.7 503 132.3 548.8 131.7C594.7 131 640.3 133 686 136.5C731.7 140 777.3 145 823 141.8C868.7 138.7 914.3 127.3 937.2 121.7L960 116L960 201L937.2 201C914.3 201 868.7 201 823 201C777.3 201 731.7 201 686 201C640.3 201 594.7 201 548.8 201C503 201 457 201 411.2 201C365.3 201 319.7 201 274 201C228.3 201 182.7 201 137 201C91.3 201 45.7 201 22.8 201L0 201Z" fill="#443791"></path><path d="M0 172L22.8 169.2C45.7 166.3 91.3 160.7 137 161.5C182.7 162.3 228.3 169.7 274 171.8C319.7 174 365.3 171 411.2 169C457 167 503 166 548.8 165.7C594.7 165.3 640.3 165.7 686 166.5C731.7 167.3 777.3 168.7 823 165.7C868.7 162.7 914.3 155.3 937.2 151.7L960 148L960 201L937.2 201C914.3 201 868.7 201 823 201C777.3 201 731.7 201 686 201C640.3 201 594.7 201 548.8 201C503 201 457 201 411.2 201C365.3 201 319.7 201 274 201C228.3 201 182.7 201 137 201C91.3 201 45.7 201 22.8 201L0 201Z" fill="#5e28a6"></path></svg>