<svg id="visual" viewBox="0 0 960 200" width="960" height="200" xmlns="http://www.w3.org/2000/svg" xmlns:xlink="http://www.w3.org/1999/xlink" version="1.1"><rect x="0" y="0" width="960" height="200" fill="#232634"></rect><path d="M0 128L22.8 130.3C45.7 132.7 91.3 137.3 137 132C182.7 126.7 228.3 111.3 274 109.7C319.7 108 365.3 120 411.2 130.8C457 141.7 503 151.3 548.8 154C594.7 156.7 640.3 152.3 686 151.3C731.7 150.3 777.3 152.7 823 144.3C868.7 136 914.3 117 937.2 107.5L960 98L960 0L937.2 0C914.3 0 868.7 0 823 0C777.3 0 731.7 0 686 0C640.3 0 594.7 0 548.8 0C503 0 457 0 411.2 0C365.3 0 319.7 0 274 0C228.3 0 182.7 0 137 0C91.3 0 45.7 0 22.8 0L0 0Z" fill="#373d59"></path><path d="M0 88L22.8 86.2C45.7 84.3 91.3 80.7 137 85.7C182.7 90.7 228.3 104.3 274 103.2C319.7 102 365.3 86 411.2 79.2C457 72.3 503 74.7 548.8 82.5C594.7 90.3 640.3 103.7 686 111C731.7 118.3 777.3 119.7 823 112C868.7 104.3 914.3 87.7 937.2 79.3L960 71L960 0L937.2 0C914.3 0 868.7 0 823 0C777.3 0 731.7 0 686 0C640.3 0 594.7 0 548.8 0C503 0 457 0 411.2 0C365.3 0 319.7 0 274 0C228.3 0 182.7 0 137 0C91.3 0 45.7 0 22.8 0L0 0Z" fill="#373c77"></path><path d="M0 64L22.8 66.8C45.7 69.7 91.3 75.3 137 74.7C182.7 74 228.3 67 274 63.3C319.7 59.7 365.3 59.3 411.2 60.8C457 62.3 503 65.7 548.8 66.3C594.7 67 640.3 65 686 61.5C731.7 58 777.3 53 823 56.2C868.7 59.3 914.3 70.7 937.2 76.3L960 82L960 0L937.2 0C914.3 0 868.7 0 823 0C777.3 0 731.7 0 686 0C640.3 0 594.7 0 548.8 0C503 0 457 0 411.2 0C365.3 0 319.7 0 274 0C228.3 0 182.7 0 137 0C91.3 0 45.7 0 22.8 0L0 0Z" fill="#443791"></path><path d="M0 26L22.8 28.8C45.7 31.7 91.3 37.3 137 36.5C182.7 35.7 228.3 28.3 274 26.2C319.7 24 365.3 27 411.2 29C457 31 503 32 548.8 32.3C594.7 32.7 640.3 32.3 686 31.5C731.7 30.7 777.3 29.3 823 32.3C868.7 35.3 914.3 42.7 937.2 46.3L960 50L960 0L937.2 0C914.3 0 868.7 0 823 0C777.3 0 731.7 0 686 0C640.3 0 594.7 0 548.8 0C503 0 457 0 411.2 0C365.3 0 319.7 0 274 0C228.3 0 182.7 0 137 0C91.3 0 45.7 0 22.8 0L0 0Z" fill="#5e28a6"></path></svg>