<svg id="visual" viewBox="0 0 960 200" width="960" height="200" xmlns="http://www.w3.org/2000/svg" xmlns:xlink="http://www.w3.org/1999/xlink" version="1.1"><path d="M0 85L22.8 77C45.7 69 91.3 53 137 47C182.7 41 228.3 45 274 54.5C319.7 64 365.3 79 411.2 77.2C457 75.3 503 56.7 548.8 50C594.7 43.3 640.3 48.7 686 55C731.7 61.3 777.3 68.7 823 68.5C868.7 68.3 914.3 60.7 937.2 56.8L960 53L960 201L937.2 201C914.3 201 868.7 201 823 201C777.3 201 731.7 201 686 201C640.3 201 594.7 201 548.8 201C503 201 457 201 411.2 201C365.3 201 319.7 201 274 201C228.3 201 182.7 201 137 201C91.3 201 45.7 201 22.8 201L0 201Z" fill="#491291"></path><path d="M0 91L22.8 90C45.7 89 91.3 87 137 91.8C182.7 96.7 228.3 108.3 274 109C319.7 109.7 365.3 99.3 411.2 92.5C457 85.7 503 82.3 548.8 85.8C594.7 89.3 640.3 99.7 686 100.2C731.7 100.7 777.3 91.3 823 87.8C868.7 84.3 914.3 86.7 937.2 87.8L960 89L960 201L937.2 201C914.3 201 868.7 201 823 201C777.3 201 731.7 201 686 201C640.3 201 594.7 201 548.8 201C503 201 457 201 411.2 201C365.3 201 319.7 201 274 201C228.3 201 182.7 201 137 201C91.3 201 45.7 201 22.8 201L0 201Z" fill="#2c2477"></path><path d="M0 112L22.8 117.2C45.7 122.3 91.3 132.7 137 136C182.7 139.3 228.3 135.7 274 132.8C319.7 130 365.3 128 411.2 130.7C457 133.3 503 140.7 548.8 143.3C594.7 146 640.3 144 686 144.3C731.7 144.7 777.3 147.3 823 146.7C868.7 146 914.3 142 937.2 140L960 138L960 201L937.2 201C914.3 201 868.7 201 823 201C777.3 201 731.7 201 686 201C640.3 201 594.7 201 548.8 201C503 201 457 201 411.2 201C365.3 201 319.7 201 274 201C228.3 201 182.7 201 137 201C91.3 201 45.7 201 22.8 201L0 201Z" fill="#212857"></path><path d="M0 143L22.8 145.8C45.7 148.7 91.3 154.3 137 159C182.7 163.7 228.3 167.3 274 165.7C319.7 164 365.3 157 411.2 156.7C457 156.3 503 162.7 548.8 162.2C594.7 161.7 640.3 154.3 686 154.7C731.7 155 777.3 163 823 161.8C868.7 160.7 914.3 150.3 937.2 145.2L960 140L960 201L937.2 201C914.3 201 868.7 201 823 201C777.3 201 731.7 201 686 201C640.3 201 594.7 201 548.8 201C503 201 457 201 411.2 201C365.3 201 319.7 201 274 201C228.3 201 182.7 201 137 201C91.3 201 45.7 201 22.8 201L0 201Z" fill="#232634"></path></svg>